<svg width="20" height="25" viewBox="0 0 20 25" fill="none" xmlns="http://www.w3.org/2000/svg">
<mask id="path-1-outside-1_2918_1544" maskUnits="userSpaceOnUse" x="-0.900024" y="-0.899994" width="21" height="26" fill="black">
<rect fill="white" x="-0.900024" y="-0.899994" width="21" height="26"/>
<path d="M9.60095 0.100006C11.1543 0.100006 12.6442 0.715109 13.7426 1.80997C14.6552 2.71985 15.2346 3.89938 15.4047 5.16055H19.1V24.1H0.0999756V5.16055H3.79822C3.96826 3.89943 4.54668 2.71982 5.45935 1.80997C6.55769 0.715116 8.04767 0.100013 9.60095 0.100006ZM2.15955 22.0473H17.0414V7.21329H15.4574V11.7123H13.3978V7.21329H5.80408V11.7123H3.74451V7.21329H2.15955V22.0473ZM9.60095 2.15274C8.5941 2.15275 7.62844 2.55157 6.91638 3.26114C6.39106 3.7848 6.03549 4.44664 5.88513 5.16055H13.3168C13.1664 4.44665 12.8109 3.7848 12.2855 3.26114C11.5735 2.55157 10.6078 2.15274 9.60095 2.15274Z"/>
</mask>
<path d="M9.60095 0.100006C11.1543 0.100006 12.6442 0.715109 13.7426 1.80997C14.6552 2.71985 15.2346 3.89938 15.4047 5.16055H19.1V24.1H0.0999756V5.16055H3.79822C3.96826 3.89943 4.54668 2.71982 5.45935 1.80997C6.55769 0.715116 8.04767 0.100013 9.60095 0.100006ZM2.15955 22.0473H17.0414V7.21329H15.4574V11.7123H13.3978V7.21329H5.80408V11.7123H3.74451V7.21329H2.15955V22.0473ZM9.60095 2.15274C8.5941 2.15275 7.62844 2.55157 6.91638 3.26114C6.39106 3.7848 6.03549 4.44664 5.88513 5.16055H13.3168C13.1664 4.44665 12.8109 3.7848 12.2855 3.26114C11.5735 2.55157 10.6078 2.15274 9.60095 2.15274Z" fill="black"/>
<path d="M9.60095 0.100006V6.10203e-06V6.10203e-06V0.100006ZM13.7426 1.80997L13.8132 1.73915L13.8132 1.73914L13.7426 1.80997ZM15.4047 5.16055L15.3056 5.17391L15.3172 5.26055H15.4047V5.16055ZM19.1 5.16055H19.2V5.06055H19.1V5.16055ZM19.1 24.1V24.2H19.2V24.1H19.1ZM0.0999756 24.1H-2.44156e-05V24.2H0.0999756V24.1ZM0.0999756 5.16055V5.06055H-2.44156e-05V5.16055H0.0999756ZM3.79822 5.16055V5.26055H3.88564L3.89732 5.17392L3.79822 5.16055ZM5.45935 1.80997L5.38875 1.73914L5.38875 1.73915L5.45935 1.80997ZM2.15955 22.0473H2.05955V22.1473H2.15955V22.0473ZM17.0414 22.0473V22.1473H17.1414V22.0473H17.0414ZM17.0414 7.21329H17.1414V7.11329H17.0414V7.21329ZM15.4574 7.21329V7.11329H15.3574V7.21329H15.4574ZM15.4574 11.7123V11.8123H15.5574V11.7123H15.4574ZM13.3978 11.7123H13.2978V11.8123H13.3978V11.7123ZM13.3978 7.21329H13.4978V7.11329H13.3978V7.21329ZM5.80408 7.21329V7.11329H5.70408V7.21329H5.80408ZM5.80408 11.7123V11.8123H5.90408V11.7123H5.80408ZM3.74451 11.7123H3.64451V11.8123H3.74451V11.7123ZM3.74451 7.21329H3.84451V7.11329H3.74451V7.21329ZM2.15955 7.21329V7.11329H2.05955V7.21329H2.15955ZM9.60095 2.15274V2.05274H9.60095L9.60095 2.15274ZM6.91638 3.26114L6.8458 3.1903L6.84578 3.19032L6.91638 3.26114ZM5.88513 5.16055L5.78728 5.13994L5.76188 5.26055H5.88513V5.16055ZM13.3168 5.16055V5.26055H13.44L13.4146 5.13994L13.3168 5.16055ZM12.2855 3.26114L12.3561 3.19031L12.3561 3.19031L12.2855 3.26114ZM9.60095 0.100006V0.200006C11.1278 0.200006 12.5924 0.804654 13.672 1.88079L13.7426 1.80997L13.8132 1.73914C12.696 0.625565 11.1807 6.10203e-06 9.60095 6.10203e-06V0.100006ZM13.7426 1.80997L13.672 1.88079C14.569 2.77507 15.1384 3.93436 15.3056 5.17391L15.4047 5.16055L15.5038 5.14719C15.3308 3.86439 14.7415 2.66463 13.8132 1.73915L13.7426 1.80997ZM15.4047 5.16055V5.26055H19.1V5.16055V5.06055H15.4047V5.16055ZM19.1 5.16055H19V24.1H19.1H19.2V5.16055H19.1ZM19.1 24.1V24H0.0999756V24.1V24.2H19.1V24.1ZM0.0999756 24.1H0.199976V5.16055H0.0999756H-2.44156e-05V24.1H0.0999756ZM0.0999756 5.16055V5.26055H3.79822V5.16055V5.06055H0.0999756V5.16055ZM3.79822 5.16055L3.89732 5.17392C4.06446 3.93436 4.63297 2.775 5.52995 1.88079L5.45935 1.80997L5.38875 1.73915C4.4604 2.66464 3.87207 3.86449 3.69911 5.14719L3.79822 5.16055ZM5.45935 1.80997L5.52995 1.88079C6.60951 0.80466 8.07409 0.200013 9.60095 0.200006V0.100006V6.10203e-06C8.02126 1.33365e-05 6.50587 0.625571 5.38875 1.73914L5.45935 1.80997ZM2.15955 22.0473V22.1473H17.0414V22.0473V21.9473H2.15955V22.0473ZM17.0414 22.0473H17.1414V7.21329H17.0414H16.9414V22.0473H17.0414ZM17.0414 7.21329V7.11329H15.4574V7.21329V7.31329H17.0414V7.21329ZM15.4574 7.21329H15.3574V11.7123H15.4574H15.5574V7.21329H15.4574ZM15.4574 11.7123V11.6123H13.3978V11.7123V11.8123H15.4574V11.7123ZM13.3978 11.7123H13.4978V7.21329H13.3978H13.2978V11.7123H13.3978ZM13.3978 7.21329V7.11329H5.80408V7.21329V7.31329H13.3978V7.21329ZM5.80408 7.21329H5.70408V11.7123H5.80408H5.90408V7.21329H5.80408ZM5.80408 11.7123V11.6123H3.74451V11.7123V11.8123H5.80408V11.7123ZM3.74451 11.7123H3.84451V7.21329H3.74451H3.64451V11.7123H3.74451ZM3.74451 7.21329V7.11329H2.15955V7.21329V7.31329H3.74451V7.21329ZM2.15955 7.21329H2.05955V22.0473H2.15955H2.25955V7.21329H2.15955ZM9.60095 2.15274L9.60095 2.05274C8.56767 2.05275 7.57662 2.46203 6.8458 3.1903L6.91638 3.26114L6.98697 3.33197C7.68026 2.6411 8.62053 2.25275 9.60095 2.25274L9.60095 2.15274ZM6.91638 3.26114L6.84578 3.19032C6.30658 3.72781 5.94161 4.40714 5.78728 5.13994L5.88513 5.16055L5.98299 5.18116C6.12936 4.48615 6.47553 3.84179 6.98698 3.33196L6.91638 3.26114ZM5.88513 5.16055V5.26055H13.3168V5.16055V5.06055H5.88513V5.16055ZM13.3168 5.16055L13.4146 5.13994C13.2603 4.40715 12.8954 3.7278 12.3561 3.19031L12.2855 3.26114L12.2149 3.33196C12.7264 3.84179 13.0725 4.48615 13.2189 5.18116L13.3168 5.16055ZM12.2855 3.26114L12.3561 3.19031C11.6253 2.46204 10.6342 2.05274 9.60095 2.05274V2.15274V2.25274C10.5813 2.25274 11.5217 2.64111 12.2149 3.33197L12.2855 3.26114Z" fill="black" mask="url(#path-1-outside-1_2918_1544)"/>
</svg>
