<svg width="19" height="24" viewBox="0 0 19 24" fill="none" xmlns="http://www.w3.org/2000/svg">
<path d="M4.53906 5.6875H3.53906H4.53906ZM1 5.92969V4.92969H0V5.92969H1ZM17.4516 5.92969H18.4516V4.92969H17.4516V5.92969ZM17.4516 22.3813V23.3813H18.4516V22.3813H17.4516ZM1 22.3813H0V23.3813H1V22.3813ZM13.9141 11.3125H14.9141V5.6875H13.9141H12.9141V11.3125H13.9141ZM13.9141 5.6875H14.9141C14.9141 4.17908 14.3148 2.73244 13.2482 1.66583L12.5411 2.37294L11.834 3.08004C12.5256 3.77158 12.9141 4.70951 12.9141 5.6875H13.9141ZM12.5411 2.37294L13.2482 1.66583C12.1816 0.599217 10.735 0 9.22656 0V1V2C10.2045 2 11.1425 2.3885 11.834 3.08004L12.5411 2.37294ZM9.22656 1V0C7.71814 0 6.27151 0.599217 5.20489 1.66583L5.912 2.37294L6.61911 3.08004C7.31065 2.3885 8.24858 2 9.22656 2V1ZM5.912 2.37294L5.20489 1.66583C4.13828 2.73244 3.53906 4.17908 3.53906 5.6875H4.53906H5.53906C5.53906 4.70951 5.92757 3.77158 6.61911 3.08004L5.912 2.37294ZM4.53906 5.6875H3.53906V11.3125H4.53906H5.53906V5.6875H4.53906ZM1 5.92969V6.92969H17.4516V5.92969V4.92969H1V5.92969ZM17.4516 5.92969H16.4516V22.3813H17.4516H18.4516V5.92969H17.4516ZM17.4516 22.3813V21.3813H1V22.3813V23.3813H17.4516V22.3813ZM1 22.3813H2V5.92969H1H0V22.3813H1Z" fill="white"/>
</svg>
