<svg width="231" height="40" viewBox="0 0 231 40" fill="none" xmlns="http://www.w3.org/2000/svg">
<rect width="231" height="40" fill="#222222"/>
<path d="M18.5898 23.3203V11.4375H21.8125V23.3203C21.8125 24.4531 21.5664 25.4258 21.0742 26.2383C20.582 27.043 19.9102 27.6602 19.0586 28.0898C18.207 28.5195 17.2461 28.7344 16.1758 28.7344C15.0742 28.7344 14.0977 28.5508 13.2461 28.1836C12.3945 27.8086 11.7266 27.2383 11.2422 26.4727C10.7656 25.707 10.5273 24.7344 10.5273 23.5547H13.7617C13.7617 24.1953 13.8594 24.7109 14.0547 25.1016C14.25 25.4922 14.5273 25.7734 14.8867 25.9453C15.2539 26.1172 15.6836 26.2031 16.1758 26.2031C16.6523 26.2031 17.0703 26.0938 17.4297 25.875C17.7969 25.6484 18.082 25.3203 18.2852 24.8906C18.4883 24.4609 18.5898 23.9375 18.5898 23.3203ZM38.8281 19.5352V20.4141C38.8281 21.7031 38.6562 22.8633 38.3125 23.8945C37.9688 24.918 37.4805 25.7891 36.8477 26.5078C36.2148 27.2266 35.4609 27.7773 34.5859 28.1602C33.7109 28.543 32.7383 28.7344 31.668 28.7344C30.6133 28.7344 29.6445 28.543 28.7617 28.1602C27.8867 27.7773 27.1289 27.2266 26.4883 26.5078C25.8477 25.7891 25.3516 24.918 25 23.8945C24.6484 22.8633 24.4727 21.7031 24.4727 20.4141V19.5352C24.4727 18.2383 24.6484 17.0781 25 16.0547C25.3516 15.0312 25.8438 14.1602 26.4766 13.4414C27.1094 12.7148 27.8633 12.1602 28.7383 11.7773C29.6211 11.3945 30.5898 11.2031 31.6445 11.2031C32.7148 11.2031 33.6875 11.3945 34.5625 11.7773C35.4375 12.1602 36.1914 12.7148 36.8242 13.4414C37.4648 14.1602 37.957 15.0312 38.3008 16.0547C38.6523 17.0781 38.8281 18.2383 38.8281 19.5352ZM35.5703 20.4141V19.5117C35.5703 18.582 35.4844 17.7656 35.3125 17.0625C35.1406 16.3516 34.8867 15.7539 34.5508 15.2695C34.2148 14.7852 33.8008 14.4219 33.3086 14.1797C32.8164 13.9297 32.2617 13.8047 31.6445 13.8047C31.0195 13.8047 30.4648 13.9297 29.9805 14.1797C29.5039 14.4219 29.0977 14.7852 28.7617 15.2695C28.4258 15.7539 28.168 16.3516 27.9883 17.0625C27.8164 17.7656 27.7305 18.582 27.7305 19.5117V20.4141C27.7305 21.3359 27.8164 22.1523 27.9883 22.8633C28.168 23.5742 28.4258 24.1758 28.7617 24.668C29.1055 25.1523 29.5195 25.5195 30.0039 25.7695C30.4883 26.0195 31.043 26.1445 31.668 26.1445C32.293 26.1445 32.8477 26.0195 33.332 25.7695C33.8164 25.5195 34.2227 25.1523 34.5508 24.668C34.8867 24.1758 35.1406 23.5742 35.3125 22.8633C35.4844 22.1523 35.5703 21.3359 35.5703 20.4141ZM44.9922 11.4375V28.5H41.7695V11.4375H44.9922ZM62.1836 11.4375V28.5H58.9492L51.6953 16.6641V28.5H48.4727V11.4375H51.6953L58.9727 23.2852V11.4375H62.1836ZM80.9336 11.4375H84.1562V22.7695C84.1562 24.0742 83.875 25.1719 83.3125 26.0625C82.75 26.9453 81.9844 27.6133 81.0156 28.0664C80.0469 28.5117 78.9453 28.7344 77.7109 28.7344C76.4609 28.7344 75.3477 28.5117 74.3711 28.0664C73.3945 27.6133 72.6289 26.9453 72.0742 26.0625C71.5195 25.1719 71.2422 24.0742 71.2422 22.7695V11.4375H74.4648V22.7695C74.4648 23.5664 74.5977 24.2188 74.8633 24.7266C75.1289 25.2266 75.5039 25.5977 75.9883 25.8398C76.4727 26.082 77.0469 26.2031 77.7109 26.2031C78.3828 26.2031 78.957 26.082 79.4336 25.8398C79.918 25.5977 80.2891 25.2266 80.5469 24.7266C80.8047 24.2188 80.9336 23.5664 80.9336 22.7695V11.4375ZM96.1445 24.0703C96.1445 23.7422 96.0938 23.4492 95.9922 23.1914C95.8984 22.9258 95.7227 22.6875 95.4648 22.4766C95.2148 22.2578 94.8594 22.0469 94.3984 21.8438C93.9453 21.6328 93.3594 21.4141 92.6406 21.1875C91.8438 20.9375 91.1016 20.6562 90.4141 20.3438C89.7266 20.0312 89.1211 19.668 88.5977 19.2539C88.082 18.8398 87.6797 18.3633 87.3906 17.8242C87.1016 17.2773 86.957 16.6445 86.957 15.9258C86.957 15.2227 87.1055 14.582 87.4023 14.0039C87.707 13.4258 88.1367 12.9297 88.6914 12.5156C89.2461 12.0938 89.8984 11.7695 90.6484 11.543C91.4062 11.3164 92.2422 11.2031 93.1562 11.2031C94.4219 11.2031 95.5156 11.4336 96.4375 11.8945C97.3672 12.3555 98.0859 12.9805 98.5938 13.7695C99.1016 14.5586 99.3555 15.4453 99.3555 16.4297H96.1445C96.1445 15.8984 96.0312 15.4297 95.8047 15.0234C95.5859 14.6172 95.25 14.2969 94.7969 14.0625C94.3516 13.8281 93.7891 13.7109 93.1094 13.7109C92.4531 13.7109 91.9062 13.8086 91.4688 14.0039C91.0391 14.1992 90.7148 14.4648 90.4961 14.8008C90.2852 15.1367 90.1797 15.5117 90.1797 15.9258C90.1797 16.2383 90.2539 16.5195 90.4023 16.7695C90.5508 17.0117 90.7734 17.2422 91.0703 17.4609C91.3672 17.6719 91.7344 17.8711 92.1719 18.0586C92.6172 18.2383 93.1328 18.418 93.7188 18.5977C94.6562 18.8789 95.4766 19.1914 96.1797 19.5352C96.8906 19.8789 97.4805 20.2695 97.9492 20.707C98.4258 21.1445 98.7812 21.6367 99.0156 22.1836C99.2578 22.7305 99.3789 23.3516 99.3789 24.0469C99.3789 24.7812 99.2344 25.4375 98.9453 26.0156C98.6562 26.5938 98.2422 27.0859 97.7031 27.4922C97.1641 27.8984 96.5156 28.207 95.7578 28.418C95.0078 28.6289 94.168 28.7344 93.2383 28.7344C92.4102 28.7344 91.5898 28.625 90.7773 28.4062C89.9727 28.1797 89.2422 27.8438 88.5859 27.3984C87.9297 26.9453 87.4062 26.375 87.0156 25.6875C86.625 24.9922 86.4297 24.1797 86.4297 23.25H89.6641C89.6641 23.7891 89.75 24.25 89.9219 24.6328C90.1016 25.0078 90.3516 25.3164 90.6719 25.5586C91 25.793 91.3828 25.9648 91.8203 26.0742C92.2578 26.1836 92.7305 26.2383 93.2383 26.2383C93.8945 26.2383 94.4336 26.1484 94.8555 25.9688C95.2852 25.7812 95.6055 25.5234 95.8164 25.1953C96.0352 24.8672 96.1445 24.4922 96.1445 24.0703ZM114.578 11.4375V28.5H111.367V11.4375H114.578ZM119.875 11.4375V13.9805H106.129V11.4375H119.875ZM135.508 19.5352V20.4141C135.508 21.7031 135.336 22.8633 134.992 23.8945C134.648 24.918 134.16 25.7891 133.527 26.5078C132.895 27.2266 132.141 27.7773 131.266 28.1602C130.391 28.543 129.418 28.7344 128.348 28.7344C127.293 28.7344 126.324 28.543 125.441 28.1602C124.566 27.7773 123.809 27.2266 123.168 26.5078C122.527 25.7891 122.031 24.918 121.68 23.8945C121.328 22.8633 121.152 21.7031 121.152 20.4141V19.5352C121.152 18.2383 121.328 17.0781 121.68 16.0547C122.031 15.0312 122.523 14.1602 123.156 13.4414C123.789 12.7148 124.543 12.1602 125.418 11.7773C126.301 11.3945 127.27 11.2031 128.324 11.2031C129.395 11.2031 130.367 11.3945 131.242 11.7773C132.117 12.1602 132.871 12.7148 133.504 13.4414C134.145 14.1602 134.637 15.0312 134.98 16.0547C135.332 17.0781 135.508 18.2383 135.508 19.5352ZM132.25 20.4141V19.5117C132.25 18.582 132.164 17.7656 131.992 17.0625C131.82 16.3516 131.566 15.7539 131.23 15.2695C130.895 14.7852 130.48 14.4219 129.988 14.1797C129.496 13.9297 128.941 13.8047 128.324 13.8047C127.699 13.8047 127.145 13.9297 126.66 14.1797C126.184 14.4219 125.777 14.7852 125.441 15.2695C125.105 15.7539 124.848 16.3516 124.668 17.0625C124.496 17.7656 124.41 18.582 124.41 19.5117V20.4141C124.41 21.3359 124.496 22.1523 124.668 22.8633C124.848 23.5742 125.105 24.1758 125.441 24.668C125.785 25.1523 126.199 25.5195 126.684 25.7695C127.168 26.0195 127.723 26.1445 128.348 26.1445C128.973 26.1445 129.527 26.0195 130.012 25.7695C130.496 25.5195 130.902 25.1523 131.23 24.668C131.566 24.1758 131.82 23.5742 131.992 22.8633C132.164 22.1523 132.25 21.3359 132.25 20.4141ZM143.336 28.5H139.656L139.68 25.9688H143.336C144.328 25.9688 145.16 25.75 145.832 25.3125C146.504 24.8672 147.012 24.2305 147.355 23.4023C147.699 22.5664 147.871 21.5664 147.871 20.4023V19.5234C147.871 18.625 147.773 17.832 147.578 17.1445C147.383 16.457 147.094 15.8789 146.711 15.4102C146.336 14.9414 145.871 14.5859 145.316 14.3438C144.762 14.1016 144.125 13.9805 143.406 13.9805H139.586V11.4375H143.406C144.547 11.4375 145.586 11.6289 146.523 12.0117C147.469 12.3945 148.285 12.9453 148.973 13.6641C149.668 14.375 150.199 15.2266 150.566 16.2188C150.941 17.2109 151.129 18.3203 151.129 19.5469V20.4023C151.129 21.6211 150.941 22.7305 150.566 23.7305C150.199 24.7227 149.668 25.5742 148.973 26.2852C148.285 26.9961 147.465 27.543 146.512 27.9258C145.559 28.3086 144.5 28.5 143.336 28.5ZM141.461 11.4375V28.5H138.238V11.4375H141.461ZM160.398 14.0273L155.535 28.5H152.125L158.5 11.4375H160.68L160.398 14.0273ZM164.465 28.5L159.578 14.0273L159.285 11.4375H161.477L167.887 28.5H164.465ZM164.242 22.1602V24.7031H155.09V22.1602H164.242ZM170.184 11.4375L173.934 19.3945L177.707 11.4375H181.246L175.574 22.2539V28.5H172.305V22.2539L166.621 11.4375H170.184ZM186.25 11.4375L185.91 23.3789H183.297L182.957 11.4375H186.25ZM182.863 27.0586C182.863 26.5977 183.02 26.2109 183.332 25.8984C183.652 25.5781 184.082 25.418 184.621 25.418C185.16 25.418 185.586 25.5781 185.898 25.8984C186.219 26.2109 186.379 26.5977 186.379 27.0586C186.379 27.5117 186.219 27.8945 185.898 28.207C185.586 28.5195 185.16 28.6758 184.621 28.6758C184.082 28.6758 183.652 28.5195 183.332 28.207C183.02 27.8945 182.863 27.5117 182.863 27.0586Z" fill="white"/>
<path d="M202.118 29L215.004 16.1141V27.9518L218 27.9412V11H201.059V13.9859L212.886 13.9965L200 26.8824L202.118 29Z" fill="white"/>
</svg>
