<svg width="976" height="398" viewBox="0 0 976 398" fill="none" xmlns="http://www.w3.org/2000/svg">
<path d="M132.444 0.500061C187.502 0.500241 227.756 36.4129 242.599 89.2862L242.602 89.296L242.604 89.3047C242.855 90.0774 242.812 90.4717 242.696 90.71C242.576 90.957 242.318 91.1634 241.812 91.4258L238.662 92.5069C237.944 92.753 237.404 92.7332 237.01 92.5811C236.625 92.4327 236.316 92.1335 236.095 91.6895C221.657 47.7598 181.59 18.0958 136.699 18.0958C121.997 18.0958 105.287 21.8045 91.373 29.7149C77.4542 37.6279 66.3012 49.7659 62.8066 66.6212C59.045 80.4763 63.9058 95.378 70.8369 107.987L70.8525 108.015C78.8774 120.667 89.039 129.462 99.6797 138.215L99.6914 138.223C121.539 155.208 145.532 166.726 168.9 179.832C192.281 192.946 214.565 207.679 233.127 227.854H233.128C250.626 248.027 263.314 274.156 261.729 301.877C259.615 334.495 238.46 362.798 210.924 378.044C190.271 389.479 167.487 393.842 144.678 393.842C109.643 393.842 78.2329 386.064 53.2705 369.247C28.3306 352.445 9.78737 326.595 0.500977 290.364C0.507368 289.615 0.633603 289.049 0.835938 288.685C1.029 288.337 1.27482 288.19 1.5957 288.19H1.80664L1.9541 288.038C2.66236 287.31 3.35868 287.067 4.15137 286.795C4.92592 286.53 5.78883 286.236 6.64551 285.397C7.3159 285.185 7.79736 285.219 8.14844 285.399C8.47311 285.566 8.77065 285.901 9.00293 286.484L9.09863 286.75C26.1855 341.647 73.716 376.246 129.253 376.246C152.714 376.246 181.077 369.673 197.705 351.472L197.704 351.471C210.051 338.767 215.41 319.46 211.654 301.806V301.803L211.473 301.003C207.547 284.258 196.445 270.219 183.846 258.882H183.847C161.985 238.595 135.321 224.887 109.286 210.136C83.7505 195.366 57.7696 179.547 39.2207 156.114L39.2168 156.108L38.3281 155.005C19.7914 131.735 9.17076 102.273 16.9727 72.3223L16.9717 72.3214C23.3094 48.7026 41.0106 30.7495 62.7412 18.6915C84.4728 6.63288 110.187 0.500061 132.444 0.500061Z" fill="#222222" stroke="#222222"/>
<path d="M326.539 317.705C346.752 363.101 387.176 388.26 425.473 388.26C468.557 388.26 508.982 365.835 536.641 316.611L541.428 319.345C512.173 366.929 476.004 394.823 414.303 394.823C344.092 394.823 270.689 341.223 270.689 252.072C270.689 164.015 344.092 110.415 414.303 110.415C473.345 110.415 526.535 155.264 526.535 191.909C526.535 216.521 499.94 238.946 440.898 240.586C372.283 242.774 328.667 269.027 326.539 317.705ZM440.367 234.023C470.685 231.835 483.983 213.24 483.983 190.815C483.983 157.452 454.728 116.978 414.835 116.978C364.304 116.978 313.242 167.297 313.242 252.072C313.242 272.309 316.433 290.358 322.284 306.766C327.603 268.48 358.985 238.946 440.367 234.023Z" fill="#222222" stroke="#222222" stroke-width="5" stroke-miterlimit="10"/>
<path d="M886.974 59.0652H890.165C891.344 59.0655 892.324 60.0533 892.324 61.2996V113.259C892.324 115.031 893.726 116.494 895.483 116.494H949.738C950.496 116.494 951.032 116.626 951.37 116.875C951.677 117.1 951.897 117.479 951.897 118.181V118.183L951.93 125.294V125.762C951.93 126.043 951.805 126.306 951.62 126.452L951.614 126.457C951.284 126.725 951.035 126.836 950.843 126.89C950.733 126.922 950.645 126.936 950.553 126.947L950.232 126.984C949.897 127.029 948.925 127.066 947.425 127.095C945.937 127.123 943.964 127.141 941.661 127.152C937.055 127.174 931.132 127.165 925.134 127.143C913.139 127.1 900.845 127.001 898.18 126.979H898.158C897.792 126.991 895.263 127.12 893.524 129.36C891.804 131.571 892.211 134.101 892.324 134.639V329.846C892.324 341.895 893.652 353.627 898.504 362.358C900.936 366.734 904.255 370.362 908.734 372.891C913.212 375.42 918.819 376.836 925.802 376.836C940.962 376.836 956.006 366.253 964.566 343.697L964.571 343.685L964.575 343.674C964.81 342.95 965.112 342.716 965.421 342.637C965.796 342.54 966.335 342.627 967.129 342.899L967.14 342.903L974.046 345.088C974.766 345.335 975.164 345.677 975.352 346.063C975.541 346.453 975.567 346.992 975.324 347.741C970.024 361.905 963.021 373.563 952.687 381.685C942.354 389.806 928.641 394.432 909.845 394.432C903.385 394.432 879.742 394.169 863.026 378.704C845.275 362.271 843.964 336.597 843.356 319.994C841.963 281.781 842.166 234.799 842.482 197.066C842.641 178.203 842.827 161.649 842.857 149.665C842.873 143.673 842.848 138.819 842.762 135.387C842.718 133.672 842.66 132.304 842.582 131.325C842.543 130.837 842.498 130.435 842.446 130.131C842.42 129.979 842.391 129.842 842.356 129.726C842.326 129.625 842.277 129.483 842.186 129.368V129.367C840.449 127.177 837.968 127.015 837.567 126.991H837.563C833.059 126.76 825.015 126.87 818.01 126.982C814.501 127.038 811.251 127.095 808.821 127.11C807.606 127.118 806.601 127.116 805.875 127.097C805.511 127.088 805.224 127.076 805.018 127.059C804.914 127.051 804.838 127.042 804.786 127.034C804.773 127.032 804.763 127.03 804.756 127.028C804.395 126.845 804.152 126.525 803.996 126.26C804.007 122.561 804.017 119.786 803.964 118.176C803.958 117.987 803.949 117.742 803.992 117.484C804.036 117.227 804.125 117.002 804.287 116.839L804.291 116.835C804.474 116.647 804.828 116.505 805.592 116.505H805.637L805.68 116.497C825.633 112.935 842.868 108.544 856.385 100.218C869.915 91.8822 879.692 79.6197 884.781 60.3895C885.03 59.884 885.245 59.5808 885.527 59.3875C885.81 59.1935 886.228 59.0652 886.974 59.0652Z" fill="#222222" stroke="#222222"/>
<path d="M601.588 12.6412V394.498H560.035V12.6412H601.588Z" fill="#222222" stroke="#222222"/>
<path d="M728.701 12.7405C721.896 12.8148 715.526 14.4134 709.793 17.886C703.921 21.4428 698.745 26.9486 694.455 34.7366C685.884 50.2978 680.83 75.0115 680.83 111.686V122.031H793.062V394.5H751.509V126.5H680.83V394.5H639.277V126.5H618.533V122.031H639.277V109.498C639.277 66.6395 650.029 41.2355 666.57 26.4631C683.004 11.7865 705.257 7.5094 728.701 7.18188V12.7405ZM772.817 35.0676C787.953 35.0678 800.508 47.9577 800.508 63.5559C800.508 79.154 787.953 92.043 772.817 92.0432C757.144 92.0432 744.595 79.1479 744.595 63.5559C744.595 47.9638 757.143 35.0676 772.817 35.0676Z" fill="#222222" stroke="#222222"/>
<path d="M793.058 117.699V122.617H618.529V117.699H793.058Z" fill="#222222" stroke="#222222"/>
</svg>
