<svg width="60" height="24" viewBox="0 0 60 24" fill="none" xmlns="http://www.w3.org/2000/svg">
<path d="M0.386268 17.2637C0.482835 17.2306 0.547213 17.2637 0.579402 17.3631C1.60945 20.6767 4.47427 22.7643 7.82193 22.7643C9.23824 22.7643 10.9443 22.3666 11.9421 21.2732C12.6825 20.511 13.0044 19.3513 12.779 18.2909C12.5537 17.2637 11.8777 16.4022 11.1052 15.7064C9.78545 14.4803 8.17601 13.6519 6.59874 12.7573C5.05367 11.8626 3.47641 10.9017 2.3498 9.47683C1.19099 8.05199 0.515024 6.22952 0.997859 4.37392C1.77039 1.49111 5.31118 0 8.01506 0C11.3627 0 13.8091 2.18696 14.7104 5.40113C14.7426 5.50054 14.7104 5.53367 14.646 5.56681L14.4529 5.63308C14.3563 5.66622 14.2919 5.63308 14.2597 5.56681C13.3906 2.91595 10.9764 1.12662 8.27257 1.12662C6.50218 1.12662 4.24895 2.02128 3.83049 4.04256C3.60517 4.87096 3.89487 5.76562 4.31333 6.52775C4.79616 7.28987 5.40775 7.82004 6.05153 8.35021C7.37128 9.37742 8.81979 10.0733 10.2361 10.8685C11.6524 11.6638 13.0044 12.5585 14.131 13.7845C15.1932 15.0105 15.9657 16.601 15.8692 18.2909C15.7404 20.2791 14.4529 22.0022 12.779 22.93C11.5237 23.6258 10.1395 23.8909 8.75541 23.8909C4.50646 23.8909 1.12661 22.0022 0 17.5951C0 17.4957 0.032189 17.4294 0.096567 17.4294C0.193134 17.33 0.289701 17.3631 0.386268 17.2637Z" fill="#222222"/>
<path d="M19.7608 19.2479C20.984 21.9982 23.4304 23.5224 25.748 23.5224C28.3553 23.5224 30.8016 22.1638 32.4755 19.1816L32.7652 19.3473C30.9948 22.2301 28.8059 23.92 25.072 23.92C20.8231 23.92 16.381 20.6727 16.381 15.2716C16.381 9.93675 20.8231 6.68944 25.072 6.68944C28.645 6.68944 31.8639 9.40657 31.8639 11.6267C31.8639 13.1178 30.2544 14.4763 26.6814 14.5758C22.5291 14.7083 19.8896 16.2988 19.7608 19.2479ZM26.6493 14.1781C28.484 14.0456 29.2888 12.919 29.2888 11.5604C29.2888 9.53912 27.5184 7.08707 25.1042 7.08707C22.0462 7.08707 18.9561 10.1356 18.9561 15.2716C18.9561 16.4976 19.1492 17.5911 19.5033 18.5852C19.8252 16.2657 21.7243 14.4763 26.6493 14.1781Z" fill="#222222"/>
<path d="M31.7862 11.6267C31.7862 10.5536 31.0044 9.34007 29.7615 8.3897C28.522 7.44199 26.84 6.7694 25.072 6.7694C20.8559 6.76941 16.4586 9.99061 16.4586 15.2716C16.4586 20.6193 20.8563 23.8401 25.072 23.8401C26.9269 23.8401 28.393 23.4205 29.6142 22.6466C30.8158 21.8851 31.7855 20.7772 32.6554 19.376L32.5043 19.2896C30.8188 22.2472 28.3654 23.6024 25.748 23.6024C23.3978 23.6024 20.9251 22.0578 19.6902 19.2812L19.6824 19.2636L19.6832 19.2443C19.7488 17.7418 20.4559 16.5839 21.6706 15.7882C22.8818 14.9947 24.5954 14.5623 26.679 14.4958H26.6793C28.458 14.4464 29.7386 14.0835 30.5718 13.555C31.4033 13.0277 31.7862 12.3384 31.7862 11.6267ZM29.2111 11.5604C29.2111 10.572 28.7773 9.47199 28.0436 8.61874C27.3107 7.76632 26.2844 7.16704 25.1042 7.16704C22.1007 7.16705 19.0338 10.1667 19.0338 15.2716C19.0338 16.3706 19.19 17.3612 19.4786 18.2681C19.6937 17.2118 20.2575 16.2761 21.3071 15.5571C22.4537 14.7717 24.175 14.2479 26.6443 14.0983C27.5467 14.033 28.1865 13.7243 28.6006 13.274C29.015 12.8236 29.2111 12.2234 29.2111 11.5604ZM31.9416 11.6267C31.9416 12.406 31.5197 13.1416 30.6533 13.6912C29.7885 14.2396 28.4779 14.6058 26.6836 14.6557L26.6835 14.6557C24.615 14.7217 22.9327 15.1509 21.754 15.9231C20.5839 16.6896 19.9077 17.7951 19.8394 19.2323C21.0534 21.945 23.4679 23.4424 25.748 23.4424C28.3252 23.4424 30.7471 22.1012 32.4082 19.1416L32.4464 19.0736L32.8747 19.3185L32.8308 19.39C31.9417 20.8378 30.9442 21.9915 29.6956 22.7828C28.4463 23.5746 26.951 24 25.072 24C20.7898 24 16.3033 20.7262 16.3033 15.2716C16.3033 9.88289 20.7902 6.60949 25.072 6.60948C26.877 6.60948 28.5909 7.29546 29.8541 8.26133C31.1139 9.22455 31.9416 10.4797 31.9416 11.6267ZM29.3664 11.5604C29.3664 12.256 29.1602 12.8983 28.7135 13.384C28.2666 13.8698 27.5868 14.1906 26.6547 14.2579L26.6543 14.2579L26.6538 14.258C24.1984 14.4066 22.5079 14.9266 21.3932 15.6902C20.2817 16.4517 19.7382 17.4584 19.5802 18.5965L19.5366 18.9109L19.4304 18.6127C19.073 17.6094 18.8784 16.5065 18.8784 15.2716C18.8784 10.1044 21.9917 7.00713 25.1042 7.00712C26.3381 7.00712 27.4042 7.63385 28.16 8.51277C28.915 9.39085 29.3664 10.5275 29.3664 11.5604Z" fill="#222222"/>
<path d="M53.5155 3.64757C53.5477 3.5813 53.5799 3.54816 53.6765 3.54816H53.8696C53.9584 3.54816 54.0305 3.62239 54.0305 3.71384V6.86174C54.0305 6.95319 54.1026 7.02742 54.1915 7.02742H57.4748C57.5713 7.02742 57.6357 7.06055 57.6357 7.15996C57.6363 7.30377 57.637 7.44758 57.6376 7.59073V7.61922C57.6376 7.64441 57.6267 7.66959 57.6074 7.68483C57.5617 7.72194 57.5327 7.71996 57.5089 7.72327C57.3306 7.74713 54.6769 7.72592 54.3544 7.72327C54.3344 7.72393 54.1934 7.73122 54.0968 7.85581C53.9964 7.98504 54.026 8.13482 54.0305 8.15403V19.9835C54.0305 21.4415 54.3524 22.8 56.0263 22.8C56.9275 22.8 57.8288 22.1705 58.3439 20.8119C58.376 20.7125 58.4404 20.7125 58.537 20.7456L58.9554 20.8782C59.052 20.9113 59.0842 20.9776 59.052 21.077C58.4082 22.8 57.346 23.9267 55.0606 23.9267C54.6698 23.9267 53.2277 23.9114 52.2067 22.9657C51.1219 21.9604 51.0434 20.3917 51.0067 19.3877C50.838 14.756 51.0556 7.99962 50.9423 7.85648C50.8458 7.73454 50.7073 7.72526 50.6848 7.72393C50.1421 7.6961 48.7425 7.75044 48.6891 7.72393C48.655 7.70736 48.635 7.67688 48.6247 7.65766C48.6254 7.42902 48.626 7.25871 48.6228 7.16062C48.6221 7.13875 48.6196 7.08905 48.6511 7.05724C48.6711 7.0367 48.7033 7.02808 48.7515 7.02808C51.1657 6.59665 52.9039 5.96707 53.5155 3.64757Z" fill="#222222"/>
<path d="M33.8609 23.9306V0.735604H36.436V23.9306H33.8609Z" fill="#222222"/>
<path d="M44.1285 0.801864C42.4547 0.801864 41.2315 2.32611 41.2315 6.7663V7.36275H48.0234V23.9306H45.4483V7.6941H41.2315V23.9306H38.6564V7.6941H37.401V7.36275H38.6564V6.63376C38.6564 1.43144 41.2637 0.43737 44.1285 0.404234V0.801864ZM46.768 2.09416C47.7015 2.09416 48.4741 2.88942 48.4741 3.85035C48.4741 4.81129 47.7015 5.60655 46.768 5.60655C45.8024 5.60655 45.0298 4.81129 45.0298 3.85035C45.0298 2.88942 45.8024 2.09416 46.768 2.09416Z" fill="#222222"/>
<path d="M48.0234 7.10034H37.401V7.45886H48.0234V7.10034Z" fill="#222222"/>
</svg>
