<svg width="23" height="23" viewBox="0 0 23 23" fill="none" xmlns="http://www.w3.org/2000/svg">
<path d="M22.5021 20.0021L16.0596 13.5596C17.2506 11.7495 17.7277 9.56182 17.3984 7.42017C17.069 5.27852 15.9568 3.33523 14.277 1.96656C12.5971 0.597878 10.4692 -0.0988303 8.30519 0.0113217C6.14118 0.121474 4.095 1.03065 2.56282 2.56282C1.03065 4.095 0.121474 6.14118 0.0113217 8.30519C-0.0988303 10.4692 0.597878 12.5971 1.96656 14.277C3.33523 15.9568 5.27852 17.069 7.42017 17.3984C9.56182 17.7277 11.7495 17.2506 13.5596 16.0596L20.0021 22.5021L22.5021 20.0021ZM2.50211 8.75211C2.50211 5.30586 5.30586 2.50211 8.75211 2.50211C12.1984 2.50211 15.0021 5.30586 15.0021 8.75211C15.0021 12.1984 12.1984 15.0021 8.75211 15.0021C5.30586 15.0021 2.50211 12.1984 2.50211 8.75211Z" fill="#222222"/>
</svg>
